<svg width="416" height="99" viewBox="0 0 416 99" fill="none" xmlns="http://www.w3.org/2000/svg">
<rect x="43.2871" y="25.667" width="336.672" height="52.9055" fill="#DB34FF"/>
<path fill-rule="evenodd" clip-rule="evenodd" d="M48.6244 6.86182L21.4502 49.3305L48.6244 91.8474H367.404L394.386 49.3305L367.404 6.86182H48.6244ZM56.7526 21.7235L39.1014 49.3305L56.7526 76.9857H359.276L376.927 49.3305L359.276 21.7235H56.7526Z" fill="#C700FF"/>
<path fill-rule="evenodd" clip-rule="evenodd" d="M359.277 21.7227L394.146 76.2635V83.5741L357.112 25.6665L359.277 21.7227Z" fill="url(#paint0_linear_1_516)"/>
<path fill-rule="evenodd" clip-rule="evenodd" d="M394.146 76.2654L359.276 21.7246L361.393 17.7808L394.146 69.0029V76.2654Z" fill="url(#paint1_linear_1_516)"/>
<path fill-rule="evenodd" clip-rule="evenodd" d="M4.66531 49.3298L21.8837 22.396V15.0854L0 49.3298H4.66531Z" fill="url(#paint2_linear_1_516)"/>
<path fill-rule="evenodd" clip-rule="evenodd" d="M21.8845 22.3979L4.66617 49.3317H9.33148L21.8845 29.7085V22.3979Z" fill="url(#paint3_linear_1_516)"/>
<path fill-rule="evenodd" clip-rule="evenodd" d="M56.7543 76.9849L21.8847 22.396V15.0854L58.9186 73.0411L56.7543 76.9849Z" fill="url(#paint4_linear_1_516)"/>
<path fill-rule="evenodd" clip-rule="evenodd" d="M21.8847 22.3979L56.7543 76.9869L54.638 80.8826L21.8847 29.7085V22.3979Z" fill="url(#paint5_linear_1_516)"/>
<path fill-rule="evenodd" clip-rule="evenodd" d="M21.4512 49.3306L48.6254 91.8474L46.4611 95.7432L16.834 49.3306H21.4512Z" fill="url(#paint6_linear_1_516)"/>
<path fill-rule="evenodd" clip-rule="evenodd" d="M48.6244 91.8469L21.4502 49.3301H26.1155L50.7887 87.903L48.6244 91.8469Z" fill="url(#paint7_linear_1_516)"/>
<path fill-rule="evenodd" clip-rule="evenodd" d="M48.6255 91.8467H367.405L369.522 95.7424H46.4612L48.6255 91.8467Z" fill="url(#paint8_linear_1_516)"/>
<path fill-rule="evenodd" clip-rule="evenodd" d="M367.405 91.8491H48.625L50.7893 87.9053H365.241L367.405 91.8491Z" fill="url(#paint9_linear_1_516)"/>
<path fill-rule="evenodd" clip-rule="evenodd" d="M365.24 87.903L389.865 49.3301H394.531L367.405 91.8469L365.24 87.903Z" fill="url(#paint10_linear_1_516)"/>
<path fill-rule="evenodd" clip-rule="evenodd" d="M367.404 91.8469L394.53 49.3301H399.196L369.521 95.7427L367.404 91.8469Z" fill="url(#paint11_linear_1_516)"/>
<path fill-rule="evenodd" clip-rule="evenodd" d="M56.7543 21.7222L21.8847 76.263V83.5736L58.9186 25.666L56.7543 21.7222Z" fill="url(#paint12_linear_1_516)"/>
<path fill-rule="evenodd" clip-rule="evenodd" d="M21.8847 76.2654L56.7543 21.7246L54.638 17.7808L21.8847 69.0029V76.2654Z" fill="url(#paint13_linear_1_516)"/>
<path fill-rule="evenodd" clip-rule="evenodd" d="M56.753 21.7246H359.277L361.393 17.7808H54.6368L56.753 21.7246Z" fill="url(#paint14_linear_1_516)"/>
<path fill-rule="evenodd" clip-rule="evenodd" d="M359.277 21.7222H56.7538L58.9181 25.666H357.113L359.277 21.7222Z" fill="url(#paint15_linear_1_516)"/>
<path fill-rule="evenodd" clip-rule="evenodd" d="M56.753 76.9849H359.277L361.393 80.8806H54.6368L56.753 76.9849Z" fill="url(#paint16_linear_1_516)"/>
<path fill-rule="evenodd" clip-rule="evenodd" d="M359.277 76.9839H56.7538L58.9181 73.04H357.113L359.277 76.9839Z" fill="url(#paint17_linear_1_516)"/>
<path fill-rule="evenodd" clip-rule="evenodd" d="M4.66531 49.3306L21.8837 76.2643V83.5749L0 49.3306H4.66531Z" fill="url(#paint18_linear_1_516)"/>
<path fill-rule="evenodd" clip-rule="evenodd" d="M21.8845 76.2643L4.66617 49.3306H9.33148L21.8845 69.0018V76.2643Z" fill="url(#paint19_linear_1_516)"/>
<path fill-rule="evenodd" clip-rule="evenodd" d="M411.364 49.3298L394.146 22.396V15.0854L416.029 49.3298H411.364Z" fill="url(#paint20_linear_1_516)"/>
<path fill-rule="evenodd" clip-rule="evenodd" d="M394.146 22.3979L411.364 49.3317H406.699L394.146 29.7085V22.3979Z" fill="url(#paint21_linear_1_516)"/>
<path fill-rule="evenodd" clip-rule="evenodd" d="M411.364 49.3306L394.146 76.2643V83.5749L416.029 49.3306H411.364Z" fill="url(#paint22_linear_1_516)"/>
<path fill-rule="evenodd" clip-rule="evenodd" d="M394.146 76.2643L411.364 49.3306H406.699L394.146 69.0018V76.2643Z" fill="url(#paint23_linear_1_516)"/>
<path fill-rule="evenodd" clip-rule="evenodd" d="M21.4502 49.3286L48.6244 6.85988L46.46 2.91602L16.8329 49.3286H21.4502Z" fill="url(#paint24_linear_1_516)"/>
<path fill-rule="evenodd" clip-rule="evenodd" d="M48.6244 6.86182L21.4502 49.3305H26.1155L50.7887 10.8057L48.6244 6.86182Z" fill="url(#paint25_linear_1_516)"/>
<path fill-rule="evenodd" clip-rule="evenodd" d="M48.6255 6.85988H367.405L369.522 2.91602H46.4612L48.6255 6.85988Z" fill="url(#paint26_linear_1_516)"/>
<path fill-rule="evenodd" clip-rule="evenodd" d="M367.405 6.86182H48.625L50.7893 10.8057H365.241L367.405 6.86182Z" fill="url(#paint27_linear_1_516)"/>
<path fill-rule="evenodd" clip-rule="evenodd" d="M365.24 10.8057L389.865 49.3305H394.531L367.405 6.86182L365.24 10.8057Z" fill="url(#paint28_linear_1_516)"/>
<path fill-rule="evenodd" clip-rule="evenodd" d="M367.404 6.85988L394.53 49.3286H399.196L369.521 2.91602L367.404 6.85988Z" fill="url(#paint29_linear_1_516)"/>
<path fill-rule="evenodd" clip-rule="evenodd" d="M359.277 76.9849L394.146 22.396V15.0854L357.112 73.0411L359.277 76.9849Z" fill="url(#paint30_linear_1_516)"/>
<path fill-rule="evenodd" clip-rule="evenodd" d="M394.146 22.3979L359.276 76.9869L361.393 80.8826L394.146 29.7085V22.3979Z" fill="url(#paint31_linear_1_516)"/>
<path fill-rule="evenodd" clip-rule="evenodd" d="M48.6258 6.8621L43.0947 8.20879L44.4414 -0.785156L48.6258 6.8621Z" fill="url(#paint32_linear_1_516)"/>
<path fill-rule="evenodd" clip-rule="evenodd" d="M48.6256 6.8621L52.7619 2.91823L44.4413 -0.785156L48.6256 6.8621Z" fill="url(#paint33_linear_1_516)"/>
<path fill-rule="evenodd" clip-rule="evenodd" d="M367.404 6.8621L372.887 8.20879L371.589 -0.785156L367.404 6.8621Z" fill="url(#paint34_linear_1_516)"/>
<path fill-rule="evenodd" clip-rule="evenodd" d="M367.405 6.8621L363.269 2.91823L371.589 -0.785156L367.405 6.8621Z" fill="url(#paint35_linear_1_516)"/>
<path fill-rule="evenodd" clip-rule="evenodd" d="M48.6258 91.8496L43.0947 90.5029L44.4414 99.4969L48.6258 91.8496Z" fill="url(#paint36_linear_1_516)"/>
<path fill-rule="evenodd" clip-rule="evenodd" d="M48.6256 91.8467L52.7619 95.7424L44.4413 99.4939L48.6256 91.8467Z" fill="url(#paint37_linear_1_516)"/>
<path fill-rule="evenodd" clip-rule="evenodd" d="M367.404 91.8496L372.887 90.5029L371.589 99.4969L367.404 91.8496Z" fill="url(#paint38_linear_1_516)"/>
<path fill-rule="evenodd" clip-rule="evenodd" d="M367.405 91.8467L363.269 95.7424L371.589 99.4939L367.405 91.8467Z" fill="url(#paint39_linear_1_516)"/>
<g style="mix-blend-mode:screen" opacity="0.35">
<path fill-rule="evenodd" clip-rule="evenodd" d="M208.015 17.7783H54.6368C55.2139 15.0369 69.787 14.5078 208.015 14.5078C346.243 14.5078 360.816 15.0369 361.393 17.7783H208.015Z" fill="#FF9566"/>
</g>
<g style="mix-blend-mode:screen" opacity="0.35">
<path fill-rule="evenodd" clip-rule="evenodd" d="M208.016 87.9024H50.79C51.4153 85.1609 66.325 84.6318 208.016 84.6318C349.706 84.6318 364.616 85.1609 365.241 87.9024H208.016Z" fill="#FF9566"/>
</g>
<path style="mix-blend-mode:multiply" fill-rule="evenodd" clip-rule="evenodd" d="M30.3007 42.8352L34.437 49.3282L39.2466 42.0657L34.966 35.5728L30.1564 42.8352H30.3007ZM39.1023 56.6388L43.2866 63.1317L48.0962 55.8211L43.7676 49.3282L38.958 56.6388H39.1023Z" fill="url(#paint40_radial_1_516)"/>
<path style="mix-blend-mode:multiply" fill-rule="evenodd" clip-rule="evenodd" d="M21.4502 56.6407L25.6345 63.1336L30.4441 55.823L26.2598 49.3301L21.4502 56.6407ZM30.2999 70.4442L34.4361 76.9372L39.2457 69.6266L35.1094 63.1336L30.2999 70.4442Z" fill="url(#paint41_radial_1_516)"/>
<path style="mix-blend-mode:multiply" fill-rule="evenodd" clip-rule="evenodd" d="M376.927 56.6407L381.063 63.1336L385.873 55.823L381.736 49.3301L376.927 56.6407ZM385.728 70.4442L389.913 76.9372L394.722 69.6266L390.586 63.1336L385.776 70.4442H385.728Z" fill="url(#paint42_radial_1_516)"/>
<path style="mix-blend-mode:multiply" fill-rule="evenodd" clip-rule="evenodd" d="M376.927 29.0359L381.063 35.577L385.873 28.2664L381.736 21.7734L376.927 29.0359ZM385.728 42.8395L389.913 49.3324L394.722 42.0699L390.586 35.577L385.776 42.8395H385.728Z" fill="url(#paint43_radial_1_516)"/>
<path fill-rule="evenodd" clip-rule="evenodd" d="M208.016 -8L222.878 6.86165L208.016 21.7233L193.154 6.86165L208.016 -8ZM208.016 -2.46897L198.733 6.86165L208.016 16.048L217.298 6.76546L208.016 -2.46897Z" fill="#999999"/>
<path fill-rule="evenodd" clip-rule="evenodd" d="M195.944 6.86165L208.016 -5.21043V-8L193.154 6.86165H195.944Z" fill="url(#paint44_linear_1_516)"/>
<path fill-rule="evenodd" clip-rule="evenodd" d="M208.015 -5.20996L195.943 6.86212H198.685L208.015 -2.4204V-5.20996Z" fill="url(#paint45_linear_1_516)"/>
<path fill-rule="evenodd" clip-rule="evenodd" d="M220.087 6.86165L208.015 -5.21043V-8L222.876 6.86165H220.087Z" fill="url(#paint46_linear_1_516)"/>
<path fill-rule="evenodd" clip-rule="evenodd" d="M208.015 -5.20996L220.087 6.86212H217.297L208.015 -2.4204V-5.20996Z" fill="url(#paint47_linear_1_516)"/>
<path fill-rule="evenodd" clip-rule="evenodd" d="M195.944 6.86182L208.016 18.9339V21.7235L193.154 6.86182H195.944Z" fill="url(#paint48_linear_1_516)"/>
<path fill-rule="evenodd" clip-rule="evenodd" d="M208.015 18.9339L195.943 6.86182H198.685L208.015 16.1443V18.9339Z" fill="url(#paint49_linear_1_516)"/>
<path fill-rule="evenodd" clip-rule="evenodd" d="M220.087 6.86182L208.015 18.9339V21.7235L222.876 6.86182H220.087Z" fill="url(#paint50_linear_1_516)"/>
<path fill-rule="evenodd" clip-rule="evenodd" d="M208.015 18.9339L220.087 6.86182H217.297L208.015 16.1443V18.9339Z" fill="url(#paint51_linear_1_516)"/>
<path fill-rule="evenodd" clip-rule="evenodd" d="M198.684 6.86162L208.015 -2.4209L217.297 6.86162L208.015 16.1441L198.684 6.86162Z" fill="#990099"/>
<path fill-rule="evenodd" clip-rule="evenodd" d="M202.003 6.86258L208.015 0.850586L214.027 6.86258L208.015 12.8746L202.003 6.86258Z" fill="#FFC95B"/>
<path fill-rule="evenodd" clip-rule="evenodd" d="M202.003 6.86406L208.015 0.852068V-2.41846L198.684 6.86406H202.003Z" fill="#C700FF"/>
<path fill-rule="evenodd" clip-rule="evenodd" d="M214.026 6.86406L208.014 0.852068V-2.41846L217.297 6.86406H214.026Z" fill="#C700FF"/>
<path fill-rule="evenodd" clip-rule="evenodd" d="M202.003 6.86182L208.015 12.8257V16.1443L198.684 6.86182H202.003Z" fill="#C700FF"/>
<path fill-rule="evenodd" clip-rule="evenodd" d="M214.026 6.86182L208.014 12.8257V16.1443L217.297 6.86182H214.026Z" fill="#C700FF"/>
<path fill-rule="evenodd" clip-rule="evenodd" d="M208.016 76.9849L222.878 91.8465L208.016 106.708L193.154 91.8465L208.016 76.9849ZM208.016 82.5159L198.733 91.8465L208.016 101.129L217.298 91.8465L208.016 82.5159Z" fill="#999999"/>
<path fill-rule="evenodd" clip-rule="evenodd" d="M195.944 91.8465L208.016 79.7744V76.9849L193.154 91.8465H195.944Z" fill="url(#paint52_linear_1_516)"/>
<path fill-rule="evenodd" clip-rule="evenodd" d="M208.015 79.7749L195.943 91.847H198.685L208.015 82.5164V79.7749Z" fill="url(#paint53_linear_1_516)"/>
<path fill-rule="evenodd" clip-rule="evenodd" d="M220.087 91.8465L208.015 79.7744V76.9849L222.876 91.8465H220.087Z" fill="url(#paint54_linear_1_516)"/>
<path fill-rule="evenodd" clip-rule="evenodd" d="M208.015 79.7749L220.087 91.847H217.297L208.015 82.5164V79.7749Z" fill="url(#paint55_linear_1_516)"/>
<path fill-rule="evenodd" clip-rule="evenodd" d="M195.944 91.8467L208.016 103.919V106.708L193.154 91.8467H195.944Z" fill="url(#paint56_linear_1_516)"/>
<path fill-rule="evenodd" clip-rule="evenodd" d="M208.015 103.919L195.943 91.8467H198.685L208.015 101.129V103.919Z" fill="url(#paint57_linear_1_516)"/>
<path fill-rule="evenodd" clip-rule="evenodd" d="M220.087 91.8467L208.015 103.919V106.708L222.876 91.8467H220.087Z" fill="url(#paint58_linear_1_516)"/>
<path fill-rule="evenodd" clip-rule="evenodd" d="M208.015 103.919L220.087 91.8467H217.297L208.015 101.129V103.919Z" fill="url(#paint59_linear_1_516)"/>
<path fill-rule="evenodd" clip-rule="evenodd" d="M198.684 91.8492L208.015 82.5186L217.297 91.8492L208.015 101.132L198.684 91.8492Z" fill="#C700FF"/>
<path fill-rule="evenodd" clip-rule="evenodd" d="M202.004 91.846L208.016 85.834L214.028 91.846L208.016 97.8099L202.004 91.846Z" fill="#FFC95B"/>
<path fill-rule="evenodd" clip-rule="evenodd" d="M202.003 91.8492L208.015 85.8372V82.5186L198.684 91.8492H202.003Z" fill="#C700FF"/>
<path fill-rule="evenodd" clip-rule="evenodd" d="M214.027 91.8492L208.015 85.8372V82.5186L217.297 91.8492H214.027Z" fill="#C700FF"/>
<path fill-rule="evenodd" clip-rule="evenodd" d="M202.003 91.7998L208.015 97.8118V101.13L198.684 91.7998H202.003Z" fill="#C700FF"/>
<path fill-rule="evenodd" clip-rule="evenodd" d="M214.027 91.7998L208.015 97.8118V101.13L217.297 91.7998H214.027Z" fill="#C700FF"/>
<defs>
<linearGradient id="paint0_linear_1_516" x1="375.629" y1="83.5741" x2="375.629" y2="21.7227" gradientUnits="userSpaceOnUse">
<stop stop-color="#6E4500"/>
<stop offset="1" stop-color="#CF9353"/>
</linearGradient>
<linearGradient id="paint1_linear_1_516" x1="376.687" y1="76.3135" x2="376.687" y2="17.7808" gradientUnits="userSpaceOnUse">
<stop stop-color="#AB671C"/>
<stop offset="1" stop-color="#784C00"/>
</linearGradient>
<linearGradient id="paint2_linear_1_516" x1="10.9659" y1="49.3298" x2="10.9659" y2="15.0854" gradientUnits="userSpaceOnUse">
<stop stop-color="#F5AD24"/>
<stop offset="1" stop-color="#FFE56B"/>
</linearGradient>
<linearGradient id="paint3_linear_1_516" x1="13.2753" y1="49.3317" x2="13.2753" y2="22.3979" gradientUnits="userSpaceOnUse">
<stop stop-color="#AB671C"/>
<stop offset="1" stop-color="#784C00"/>
</linearGradient>
<linearGradient id="paint4_linear_1_516" x1="40.4016" y1="76.9849" x2="40.4016" y2="15.0854" gradientUnits="userSpaceOnUse">
<stop stop-color="#AB671C"/>
<stop offset="1" stop-color="#784C00"/>
</linearGradient>
<linearGradient id="paint5_linear_1_516" x1="39.3435" y1="80.8826" x2="39.3435" y2="22.3979" gradientUnits="userSpaceOnUse">
<stop stop-color="#F5B41E"/>
<stop offset="1" stop-color="#D18900"/>
</linearGradient>
<linearGradient id="paint6_linear_1_516" x1="32.7056" y1="95.7432" x2="32.7056" y2="49.3306" gradientUnits="userSpaceOnUse">
<stop stop-color="#F5B41E"/>
<stop offset="1" stop-color="#D18900"/>
</linearGradient>
<linearGradient id="paint7_linear_1_516" x1="36.1195" y1="91.8469" x2="36.1195" y2="49.3301" gradientUnits="userSpaceOnUse">
<stop stop-color="#AB671C"/>
<stop offset="1" stop-color="#784C00"/>
</linearGradient>
<linearGradient id="paint8_linear_1_516" x1="208.015" y1="95.7424" x2="208.015" y2="91.8467" gradientUnits="userSpaceOnUse">
<stop stop-color="#472D00"/>
<stop offset="1" stop-color="#784814"/>
</linearGradient>
<linearGradient id="paint9_linear_1_516" x1="208.015" y1="91.8491" x2="208.015" y2="87.9053" gradientUnits="userSpaceOnUse">
<stop stop-color="#FFBE45"/>
<stop offset="1" stop-color="#FFF0AB"/>
</linearGradient>
<linearGradient id="paint10_linear_1_516" x1="379.909" y1="91.8469" x2="379.909" y2="49.3301" gradientUnits="userSpaceOnUse">
<stop stop-color="#F5AD24"/>
<stop offset="1" stop-color="#FFE56B"/>
</linearGradient>
<linearGradient id="paint11_linear_1_516" x1="383.324" y1="95.7427" x2="383.324" y2="49.3301" gradientUnits="userSpaceOnUse">
<stop stop-color="#784C00"/>
<stop offset="1" stop-color="#AB671C"/>
</linearGradient>
<linearGradient id="paint12_linear_1_516" x1="40.4016" y1="83.5736" x2="40.4016" y2="21.7222" gradientUnits="userSpaceOnUse">
<stop stop-color="#E3A436"/>
<stop offset="1" stop-color="#784C00"/>
</linearGradient>
<linearGradient id="paint13_linear_1_516" x1="39.3435" y1="76.3135" x2="39.3435" y2="17.7808" gradientUnits="userSpaceOnUse">
<stop stop-color="#F5AD24"/>
<stop offset="1" stop-color="#FFE56B"/>
</linearGradient>
<linearGradient id="paint14_linear_1_516" x1="208.015" y1="21.7246" x2="208.015" y2="17.7808" gradientUnits="userSpaceOnUse">
<stop stop-color="#FFBE45"/>
<stop offset="1" stop-color="#FFF0AB"/>
</linearGradient>
<linearGradient id="paint15_linear_1_516" x1="208.016" y1="25.666" x2="208.016" y2="21.7222" gradientUnits="userSpaceOnUse">
<stop stop-color="#6E4500"/>
<stop offset="1" stop-color="#CF9353"/>
</linearGradient>
<linearGradient id="paint16_linear_1_516" x1="208.015" y1="80.8806" x2="208.015" y2="76.9849" gradientUnits="userSpaceOnUse">
<stop stop-color="#784C00"/>
<stop offset="1" stop-color="#AB671C"/>
</linearGradient>
<linearGradient id="paint17_linear_1_516" x1="208.016" y1="76.9839" x2="208.016" y2="73.04" gradientUnits="userSpaceOnUse">
<stop stop-color="#FFBE45"/>
<stop offset="1" stop-color="#FFF0AB"/>
</linearGradient>
<linearGradient id="paint18_linear_1_516" x1="10.9659" y1="83.5749" x2="10.9659" y2="49.3306" gradientUnits="userSpaceOnUse">
<stop stop-color="#6E4500"/>
<stop offset="1" stop-color="#CF9353"/>
</linearGradient>
<linearGradient id="paint19_linear_1_516" x1="13.2753" y1="76.3124" x2="13.2753" y2="49.3306" gradientUnits="userSpaceOnUse">
<stop stop-color="#AB671C"/>
<stop offset="1" stop-color="#784C00"/>
</linearGradient>
<linearGradient id="paint20_linear_1_516" x1="405.063" y1="49.3298" x2="405.063" y2="15.0854" gradientUnits="userSpaceOnUse">
<stop stop-color="#AB671C"/>
<stop offset="1" stop-color="#784C00"/>
</linearGradient>
<linearGradient id="paint21_linear_1_516" x1="402.755" y1="49.3317" x2="402.755" y2="22.3979" gradientUnits="userSpaceOnUse">
<stop stop-color="#6E4500"/>
<stop offset="1" stop-color="#CF9353"/>
</linearGradient>
<linearGradient id="paint22_linear_1_516" x1="405.063" y1="83.5749" x2="405.063" y2="49.3306" gradientUnits="userSpaceOnUse">
<stop stop-color="#AB671C"/>
<stop offset="1" stop-color="#784C00"/>
</linearGradient>
<linearGradient id="paint23_linear_1_516" x1="402.755" y1="76.3124" x2="402.755" y2="49.3306" gradientUnits="userSpaceOnUse">
<stop stop-color="#F5AD24"/>
<stop offset="1" stop-color="#FFE56B"/>
</linearGradient>
<linearGradient id="paint24_linear_1_516" x1="32.7046" y1="49.3286" x2="32.7046" y2="2.91602" gradientUnits="userSpaceOnUse">
<stop stop-color="#F5AD24"/>
<stop offset="1" stop-color="#FFE56B"/>
</linearGradient>
<linearGradient id="paint25_linear_1_516" x1="36.1195" y1="49.3305" x2="36.1195" y2="6.86182" gradientUnits="userSpaceOnUse">
<stop stop-color="#AB671C"/>
<stop offset="1" stop-color="#784C00"/>
</linearGradient>
<linearGradient id="paint26_linear_1_516" x1="208.015" y1="6.85988" x2="208.015" y2="2.91602" gradientUnits="userSpaceOnUse">
<stop stop-color="#FFF18F"/>
<stop offset="1" stop-color="#FFFAE3"/>
</linearGradient>
<linearGradient id="paint27_linear_1_516" x1="208.015" y1="10.8057" x2="208.015" y2="6.86182" gradientUnits="userSpaceOnUse">
<stop stop-color="#6E4500"/>
<stop offset="1" stop-color="#CF9353"/>
</linearGradient>
<linearGradient id="paint28_linear_1_516" x1="379.909" y1="49.3305" x2="379.909" y2="6.86182" gradientUnits="userSpaceOnUse">
<stop stop-color="#6E4500"/>
<stop offset="1" stop-color="#CF9353"/>
</linearGradient>
<linearGradient id="paint29_linear_1_516" x1="383.324" y1="49.3286" x2="383.324" y2="2.91602" gradientUnits="userSpaceOnUse">
<stop stop-color="#AB671C"/>
<stop offset="1" stop-color="#784C00"/>
</linearGradient>
<linearGradient id="paint30_linear_1_516" x1="375.629" y1="76.9849" x2="375.629" y2="15.0854" gradientUnits="userSpaceOnUse">
<stop stop-color="#F5AD24"/>
<stop offset="1" stop-color="#FFE56B"/>
</linearGradient>
<linearGradient id="paint31_linear_1_516" x1="376.687" y1="80.8826" x2="376.687" y2="22.3979" gradientUnits="userSpaceOnUse">
<stop stop-color="#E3A436"/>
<stop offset="1" stop-color="#784C00"/>
</linearGradient>
<linearGradient id="paint32_linear_1_516" x1="43.0947" y1="3.68777" x2="48.6258" y2="3.68777" gradientUnits="userSpaceOnUse">
<stop stop-color="#FFF18F"/>
<stop offset="1" stop-color="#FFFAE3"/>
</linearGradient>
<linearGradient id="paint33_linear_1_516" x1="44.4413" y1="3.01442" x2="52.7619" y2="3.01442" gradientUnits="userSpaceOnUse">
<stop stop-color="#F5AD24"/>
<stop offset="1" stop-color="#FFE56B"/>
</linearGradient>
<linearGradient id="paint34_linear_1_516" x1="367.404" y1="3.68777" x2="372.935" y2="3.68777" gradientUnits="userSpaceOnUse">
<stop stop-color="#AB671C"/>
<stop offset="1" stop-color="#784C00"/>
</linearGradient>
<linearGradient id="paint35_linear_1_516" x1="363.269" y1="3.01442" x2="371.589" y2="3.01442" gradientUnits="userSpaceOnUse">
<stop stop-color="#FFF18F"/>
<stop offset="1" stop-color="#FFFAE3"/>
</linearGradient>
<linearGradient id="paint36_linear_1_516" x1="43.0947" y1="94.9759" x2="48.6258" y2="94.9759" gradientUnits="userSpaceOnUse">
<stop stop-color="#F5B41E"/>
<stop offset="1" stop-color="#D18900"/>
</linearGradient>
<linearGradient id="paint37_linear_1_516" x1="44.4413" y1="95.6463" x2="52.7619" y2="95.6463" gradientUnits="userSpaceOnUse">
<stop stop-color="#472D00"/>
<stop offset="1" stop-color="#784814"/>
</linearGradient>
<linearGradient id="paint38_linear_1_516" x1="367.404" y1="94.9759" x2="372.935" y2="94.9759" gradientUnits="userSpaceOnUse">
<stop stop-color="#784814"/>
<stop offset="1" stop-color="#472D00"/>
</linearGradient>
<linearGradient id="paint39_linear_1_516" x1="363.269" y1="95.6463" x2="371.589" y2="95.6463" gradientUnits="userSpaceOnUse">
<stop stop-color="#784C00"/>
<stop offset="1" stop-color="#AB671C"/>
</linearGradient>
<radialGradient id="paint40_radial_1_516" cx="0" cy="0" r="1" gradientUnits="userSpaceOnUse" gradientTransform="translate(39.1023 49.3282) scale(11.5911)">
<stop stop-color="#80521A"/>
<stop offset="0.94" stop-color="white"/>
</radialGradient>
<radialGradient id="paint41_radial_1_516" cx="0" cy="0" r="1" gradientUnits="userSpaceOnUse" gradientTransform="translate(30.2999 63.1336) scale(11.5911)">
<stop stop-color="#80521A"/>
<stop offset="0.94" stop-color="white"/>
</radialGradient>
<radialGradient id="paint42_radial_1_516" cx="0" cy="0" r="1" gradientUnits="userSpaceOnUse" gradientTransform="translate(385.728 63.1336) scale(11.5911 11.5911)">
<stop stop-color="#80521A"/>
<stop offset="0.94" stop-color="white"/>
</radialGradient>
<radialGradient id="paint43_radial_1_516" cx="0" cy="0" r="1" gradientUnits="userSpaceOnUse" gradientTransform="translate(385.728 35.577) scale(11.5911 11.5911)">
<stop stop-color="#80521A"/>
<stop offset="0.94" stop-color="white"/>
</radialGradient>
<linearGradient id="paint44_linear_1_516" x1="193.154" y1="-0.593224" x2="208.016" y2="-0.593224" gradientUnits="userSpaceOnUse">
<stop stop-color="#FFF18F"/>
<stop offset="1" stop-color="#FFFAE3"/>
</linearGradient>
<linearGradient id="paint45_linear_1_516" x1="195.943" y1="0.802033" x2="208.015" y2="0.802033" gradientUnits="userSpaceOnUse">
<stop stop-color="#AB5F0B"/>
<stop offset="1" stop-color="#753C00"/>
</linearGradient>
<linearGradient id="paint46_linear_1_516" x1="208.015" y1="-0.593224" x2="222.876" y2="-0.593224" gradientUnits="userSpaceOnUse">
<stop stop-color="#EDA85F"/>
<stop offset="1" stop-color="#A36700"/>
</linearGradient>
<linearGradient id="paint47_linear_1_516" x1="208.015" y1="0.802033" x2="220.087" y2="0.802033" gradientUnits="userSpaceOnUse">
<stop stop-color="#A15900"/>
<stop offset="1" stop-color="#E39644"/>
</linearGradient>
<linearGradient id="paint48_linear_1_516" x1="193.154" y1="14.2686" x2="208.016" y2="14.2686" gradientUnits="userSpaceOnUse">
<stop stop-color="#EDA85F"/>
<stop offset="1" stop-color="#A36700"/>
</linearGradient>
<linearGradient id="paint49_linear_1_516" x1="195.943" y1="12.9219" x2="208.015" y2="12.9219" gradientUnits="userSpaceOnUse">
<stop stop-color="#6E4500"/>
<stop offset="1" stop-color="#CF9353"/>
</linearGradient>
<linearGradient id="paint50_linear_1_516" x1="208.015" y1="14.2686" x2="222.876" y2="14.2686" gradientUnits="userSpaceOnUse">
<stop stop-color="#AB5F0B"/>
<stop offset="1" stop-color="#753C00"/>
</linearGradient>
<linearGradient id="paint51_linear_1_516" x1="208.015" y1="12.9219" x2="220.087" y2="12.9219" gradientUnits="userSpaceOnUse">
<stop stop-color="#FFBE45"/>
<stop offset="1" stop-color="#FFF0AB"/>
</linearGradient>
<linearGradient id="paint52_linear_1_516" x1="193.154" y1="84.3916" x2="208.016" y2="84.3916" gradientUnits="userSpaceOnUse">
<stop stop-color="#FFF18F"/>
<stop offset="1" stop-color="#FFFAE3"/>
</linearGradient>
<linearGradient id="paint53_linear_1_516" x1="195.943" y1="85.7869" x2="208.015" y2="85.7869" gradientUnits="userSpaceOnUse">
<stop stop-color="#AB5F0B"/>
<stop offset="1" stop-color="#753C00"/>
</linearGradient>
<linearGradient id="paint54_linear_1_516" x1="208.015" y1="84.3916" x2="222.876" y2="84.3916" gradientUnits="userSpaceOnUse">
<stop stop-color="#EDA85F"/>
<stop offset="1" stop-color="#A36700"/>
</linearGradient>
<linearGradient id="paint55_linear_1_516" x1="208.015" y1="85.7869" x2="220.087" y2="85.7869" gradientUnits="userSpaceOnUse">
<stop stop-color="#A15900"/>
<stop offset="1" stop-color="#E39644"/>
</linearGradient>
<linearGradient id="paint56_linear_1_516" x1="193.154" y1="99.2535" x2="208.016" y2="99.2535" gradientUnits="userSpaceOnUse">
<stop stop-color="#EDA85F"/>
<stop offset="1" stop-color="#A36700"/>
</linearGradient>
<linearGradient id="paint57_linear_1_516" x1="195.943" y1="97.8587" x2="208.015" y2="97.8587" gradientUnits="userSpaceOnUse">
<stop stop-color="#6E4500"/>
<stop offset="1" stop-color="#CF9353"/>
</linearGradient>
<linearGradient id="paint58_linear_1_516" x1="208.015" y1="99.2535" x2="222.876" y2="99.2535" gradientUnits="userSpaceOnUse">
<stop stop-color="#AB5F0B"/>
<stop offset="1" stop-color="#753C00"/>
</linearGradient>
<linearGradient id="paint59_linear_1_516" x1="208.015" y1="97.8587" x2="220.087" y2="97.8587" gradientUnits="userSpaceOnUse">
<stop stop-color="#FFBE45"/>
<stop offset="1" stop-color="#FFF0AB"/>
</linearGradient>
</defs>
</svg>
